<mxfile host="app.diagrams.net" modified="2020-10-08T12:25:58.470Z" agent="5.0 (X11; Linux x86_64) AppleWebKit/537.36 (KHTML, like Gecko) Chrome/85.0.4183.83 Safari/537.36" etag="wVpUDjrbM8JSP_0nnKhE" version="13.7.8" type="github">
  <diagram id="bXftTiWJgicMIcp8H-2O" name="Page-1">
    <mxGraphModel dx="702" dy="442" grid="1" gridSize="10" guides="1" tooltips="1" connect="1" arrows="1" fold="1" page="1" pageScale="1" pageWidth="827" pageHeight="1169" math="0" shadow="0">
      <root>
        <mxCell id="0" />
        <mxCell id="1" parent="0" />
        <mxCell id="RnYIIJHX9u6YJFglTVOt-33" value="voters" style="shape=table;startSize=30;container=1;collapsible=1;childLayout=tableLayout;fixedRows=1;rowLines=0;fontStyle=1;align=center;resizeLast=1;fillColor=#ffe6cc;strokeColor=#d79b00;" vertex="1" parent="1">
          <mxGeometry x="590" y="70" width="180" height="180" as="geometry" />
        </mxCell>
        <mxCell id="RnYIIJHX9u6YJFglTVOt-34" value="" style="shape=partialRectangle;collapsible=0;dropTarget=0;pointerEvents=0;fillColor=none;top=0;left=0;bottom=1;right=0;points=[[0,0.5],[1,0.5]];portConstraint=eastwest;" vertex="1" parent="RnYIIJHX9u6YJFglTVOt-33">
          <mxGeometry y="30" width="180" height="30" as="geometry" />
        </mxCell>
        <mxCell id="RnYIIJHX9u6YJFglTVOt-35" value="PK" style="shape=partialRectangle;connectable=0;fillColor=none;top=0;left=0;bottom=0;right=0;fontStyle=1;overflow=hidden;" vertex="1" parent="RnYIIJHX9u6YJFglTVOt-34">
          <mxGeometry width="30" height="30" as="geometry" />
        </mxCell>
        <mxCell id="RnYIIJHX9u6YJFglTVOt-36" value="ID" style="shape=partialRectangle;connectable=0;fillColor=none;top=0;left=0;bottom=0;right=0;align=left;spacingLeft=6;fontStyle=5;overflow=hidden;" vertex="1" parent="RnYIIJHX9u6YJFglTVOt-34">
          <mxGeometry x="30" width="150" height="30" as="geometry" />
        </mxCell>
        <mxCell id="RnYIIJHX9u6YJFglTVOt-37" value="" style="shape=partialRectangle;collapsible=0;dropTarget=0;pointerEvents=0;fillColor=none;top=0;left=0;bottom=0;right=0;points=[[0,0.5],[1,0.5]];portConstraint=eastwest;" vertex="1" parent="RnYIIJHX9u6YJFglTVOt-33">
          <mxGeometry y="60" width="180" height="30" as="geometry" />
        </mxCell>
        <mxCell id="RnYIIJHX9u6YJFglTVOt-38" value="" style="shape=partialRectangle;connectable=0;fillColor=none;top=0;left=0;bottom=0;right=0;editable=1;overflow=hidden;" vertex="1" parent="RnYIIJHX9u6YJFglTVOt-37">
          <mxGeometry width="30" height="30" as="geometry" />
        </mxCell>
        <mxCell id="RnYIIJHX9u6YJFglTVOt-39" value="name (varchrat)" style="shape=partialRectangle;connectable=0;fillColor=none;top=0;left=0;bottom=0;right=0;align=left;spacingLeft=6;overflow=hidden;" vertex="1" parent="RnYIIJHX9u6YJFglTVOt-37">
          <mxGeometry x="30" width="150" height="30" as="geometry" />
        </mxCell>
        <mxCell id="RnYIIJHX9u6YJFglTVOt-40" value="" style="shape=partialRectangle;collapsible=0;dropTarget=0;pointerEvents=0;fillColor=none;top=0;left=0;bottom=0;right=0;points=[[0,0.5],[1,0.5]];portConstraint=eastwest;" vertex="1" parent="RnYIIJHX9u6YJFglTVOt-33">
          <mxGeometry y="90" width="180" height="30" as="geometry" />
        </mxCell>
        <mxCell id="RnYIIJHX9u6YJFglTVOt-41" value="" style="shape=partialRectangle;connectable=0;fillColor=none;top=0;left=0;bottom=0;right=0;editable=1;overflow=hidden;" vertex="1" parent="RnYIIJHX9u6YJFglTVOt-40">
          <mxGeometry width="30" height="30" as="geometry" />
        </mxCell>
        <mxCell id="RnYIIJHX9u6YJFglTVOt-42" value="lastname (varchart)" style="shape=partialRectangle;connectable=0;fillColor=none;top=0;left=0;bottom=0;right=0;align=left;spacingLeft=6;overflow=hidden;" vertex="1" parent="RnYIIJHX9u6YJFglTVOt-40">
          <mxGeometry x="30" width="150" height="30" as="geometry" />
        </mxCell>
        <mxCell id="RnYIIJHX9u6YJFglTVOt-43" value="" style="shape=partialRectangle;collapsible=0;dropTarget=0;pointerEvents=0;fillColor=none;top=0;left=0;bottom=0;right=0;points=[[0,0.5],[1,0.5]];portConstraint=eastwest;" vertex="1" parent="RnYIIJHX9u6YJFglTVOt-33">
          <mxGeometry y="120" width="180" height="30" as="geometry" />
        </mxCell>
        <mxCell id="RnYIIJHX9u6YJFglTVOt-44" value="" style="shape=partialRectangle;connectable=0;fillColor=none;top=0;left=0;bottom=0;right=0;editable=1;overflow=hidden;" vertex="1" parent="RnYIIJHX9u6YJFglTVOt-43">
          <mxGeometry width="30" height="30" as="geometry" />
        </mxCell>
        <mxCell id="RnYIIJHX9u6YJFglTVOt-45" value="gender (varchart)" style="shape=partialRectangle;connectable=0;fillColor=none;top=0;left=0;bottom=0;right=0;align=left;spacingLeft=6;overflow=hidden;" vertex="1" parent="RnYIIJHX9u6YJFglTVOt-43">
          <mxGeometry x="30" width="150" height="30" as="geometry" />
        </mxCell>
        <mxCell id="RnYIIJHX9u6YJFglTVOt-143" value="" style="shape=partialRectangle;collapsible=0;dropTarget=0;pointerEvents=0;fillColor=none;top=0;left=0;bottom=0;right=0;points=[[0,0.5],[1,0.5]];portConstraint=eastwest;" vertex="1" parent="RnYIIJHX9u6YJFglTVOt-33">
          <mxGeometry y="150" width="180" height="30" as="geometry" />
        </mxCell>
        <mxCell id="RnYIIJHX9u6YJFglTVOt-144" value="" style="shape=partialRectangle;connectable=0;fillColor=none;top=0;left=0;bottom=0;right=0;editable=1;overflow=hidden;" vertex="1" parent="RnYIIJHX9u6YJFglTVOt-143">
          <mxGeometry width="30" height="30" as="geometry" />
        </mxCell>
        <mxCell id="RnYIIJHX9u6YJFglTVOt-145" value="age (varchart)" style="shape=partialRectangle;connectable=0;fillColor=none;top=0;left=0;bottom=0;right=0;align=left;spacingLeft=6;overflow=hidden;" vertex="1" parent="RnYIIJHX9u6YJFglTVOt-143">
          <mxGeometry x="30" width="150" height="30" as="geometry" />
        </mxCell>
        <mxCell id="RnYIIJHX9u6YJFglTVOt-46" value="candidates" style="shape=table;startSize=30;container=1;collapsible=1;childLayout=tableLayout;fixedRows=1;rowLines=0;fontStyle=1;align=center;resizeLast=1;fillColor=#dae8fc;strokeColor=#6c8ebf;" vertex="1" parent="1">
          <mxGeometry x="20" y="70" width="180" height="220" as="geometry" />
        </mxCell>
        <mxCell id="RnYIIJHX9u6YJFglTVOt-47" value="" style="shape=partialRectangle;collapsible=0;dropTarget=0;pointerEvents=0;fillColor=none;top=0;left=0;bottom=1;right=0;points=[[0,0.5],[1,0.5]];portConstraint=eastwest;" vertex="1" parent="RnYIIJHX9u6YJFglTVOt-46">
          <mxGeometry y="30" width="180" height="30" as="geometry" />
        </mxCell>
        <mxCell id="RnYIIJHX9u6YJFglTVOt-48" value="PK" style="shape=partialRectangle;connectable=0;fillColor=none;top=0;left=0;bottom=0;right=0;fontStyle=1;overflow=hidden;" vertex="1" parent="RnYIIJHX9u6YJFglTVOt-47">
          <mxGeometry width="30" height="30" as="geometry" />
        </mxCell>
        <mxCell id="RnYIIJHX9u6YJFglTVOt-49" value="ID" style="shape=partialRectangle;connectable=0;fillColor=none;top=0;left=0;bottom=0;right=0;align=left;spacingLeft=6;fontStyle=5;overflow=hidden;" vertex="1" parent="RnYIIJHX9u6YJFglTVOt-47">
          <mxGeometry x="30" width="150" height="30" as="geometry" />
        </mxCell>
        <mxCell id="RnYIIJHX9u6YJFglTVOt-50" value="" style="shape=partialRectangle;collapsible=0;dropTarget=0;pointerEvents=0;fillColor=none;top=0;left=0;bottom=0;right=0;points=[[0,0.5],[1,0.5]];portConstraint=eastwest;" vertex="1" parent="RnYIIJHX9u6YJFglTVOt-46">
          <mxGeometry y="60" width="180" height="30" as="geometry" />
        </mxCell>
        <mxCell id="RnYIIJHX9u6YJFglTVOt-51" value="" style="shape=partialRectangle;connectable=0;fillColor=none;top=0;left=0;bottom=0;right=0;editable=1;overflow=hidden;" vertex="1" parent="RnYIIJHX9u6YJFglTVOt-50">
          <mxGeometry width="30" height="30" as="geometry" />
        </mxCell>
        <mxCell id="RnYIIJHX9u6YJFglTVOt-52" value="name (varchart)" style="shape=partialRectangle;connectable=0;fillColor=none;top=0;left=0;bottom=0;right=0;align=left;spacingLeft=6;overflow=hidden;" vertex="1" parent="RnYIIJHX9u6YJFglTVOt-50">
          <mxGeometry x="30" width="150" height="30" as="geometry" />
        </mxCell>
        <mxCell id="RnYIIJHX9u6YJFglTVOt-56" value="" style="shape=partialRectangle;collapsible=0;dropTarget=0;pointerEvents=0;fillColor=none;top=0;left=0;bottom=0;right=0;points=[[0,0.5],[1,0.5]];portConstraint=eastwest;" vertex="1" parent="RnYIIJHX9u6YJFglTVOt-46">
          <mxGeometry y="90" width="180" height="30" as="geometry" />
        </mxCell>
        <mxCell id="RnYIIJHX9u6YJFglTVOt-57" value="" style="shape=partialRectangle;connectable=0;fillColor=none;top=0;left=0;bottom=0;right=0;editable=1;overflow=hidden;" vertex="1" parent="RnYIIJHX9u6YJFglTVOt-56">
          <mxGeometry width="30" height="30" as="geometry" />
        </mxCell>
        <mxCell id="RnYIIJHX9u6YJFglTVOt-58" value="partay (varchart)" style="shape=partialRectangle;connectable=0;fillColor=none;top=0;left=0;bottom=0;right=0;align=left;spacingLeft=6;overflow=hidden;" vertex="1" parent="RnYIIJHX9u6YJFglTVOt-56">
          <mxGeometry x="30" width="150" height="30" as="geometry" />
        </mxCell>
        <mxCell id="RnYIIJHX9u6YJFglTVOt-90" value="" style="shape=partialRectangle;collapsible=0;dropTarget=0;pointerEvents=0;fillColor=none;top=0;left=0;bottom=0;right=0;points=[[0,0.5],[1,0.5]];portConstraint=eastwest;" vertex="1" parent="RnYIIJHX9u6YJFglTVOt-46">
          <mxGeometry y="120" width="180" height="30" as="geometry" />
        </mxCell>
        <mxCell id="RnYIIJHX9u6YJFglTVOt-91" value="" style="shape=partialRectangle;connectable=0;fillColor=none;top=0;left=0;bottom=0;right=0;editable=1;overflow=hidden;" vertex="1" parent="RnYIIJHX9u6YJFglTVOt-90">
          <mxGeometry width="30" height="30" as="geometry" />
        </mxCell>
        <mxCell id="RnYIIJHX9u6YJFglTVOt-92" value="location (varchart)" style="shape=partialRectangle;connectable=0;fillColor=none;top=0;left=0;bottom=0;right=0;align=left;spacingLeft=6;overflow=hidden;" vertex="1" parent="RnYIIJHX9u6YJFglTVOt-90">
          <mxGeometry x="30" width="150" height="30" as="geometry" />
        </mxCell>
        <mxCell id="RnYIIJHX9u6YJFglTVOt-146" value="" style="shape=partialRectangle;collapsible=0;dropTarget=0;pointerEvents=0;fillColor=none;top=0;left=0;bottom=0;right=0;points=[[0,0.5],[1,0.5]];portConstraint=eastwest;" vertex="1" parent="RnYIIJHX9u6YJFglTVOt-46">
          <mxGeometry y="150" width="180" height="30" as="geometry" />
        </mxCell>
        <mxCell id="RnYIIJHX9u6YJFglTVOt-147" value="" style="shape=partialRectangle;connectable=0;fillColor=none;top=0;left=0;bottom=0;right=0;editable=1;overflow=hidden;" vertex="1" parent="RnYIIJHX9u6YJFglTVOt-146">
          <mxGeometry width="30" height="30" as="geometry" />
        </mxCell>
        <mxCell id="RnYIIJHX9u6YJFglTVOt-148" value="current_grade (varchart)" style="shape=partialRectangle;connectable=0;fillColor=none;top=0;left=0;bottom=0;right=0;align=left;spacingLeft=6;overflow=hidden;" vertex="1" parent="RnYIIJHX9u6YJFglTVOt-146">
          <mxGeometry x="30" width="150" height="30" as="geometry" />
        </mxCell>
        <mxCell id="RnYIIJHX9u6YJFglTVOt-87" value="" style="shape=partialRectangle;collapsible=0;dropTarget=0;pointerEvents=0;fillColor=none;top=0;left=0;bottom=0;right=0;points=[[0,0.5],[1,0.5]];portConstraint=eastwest;" vertex="1" parent="RnYIIJHX9u6YJFglTVOt-46">
          <mxGeometry y="180" width="180" height="30" as="geometry" />
        </mxCell>
        <mxCell id="RnYIIJHX9u6YJFglTVOt-88" value="" style="shape=partialRectangle;connectable=0;fillColor=none;top=0;left=0;bottom=0;right=0;editable=1;overflow=hidden;" vertex="1" parent="RnYIIJHX9u6YJFglTVOt-87">
          <mxGeometry width="30" height="30" as="geometry" />
        </mxCell>
        <mxCell id="RnYIIJHX9u6YJFglTVOt-89" value="" style="shape=partialRectangle;connectable=0;fillColor=none;top=0;left=0;bottom=0;right=0;align=left;spacingLeft=6;overflow=hidden;" vertex="1" parent="RnYIIJHX9u6YJFglTVOt-87">
          <mxGeometry x="30" width="150" height="30" as="geometry" />
        </mxCell>
        <mxCell id="RnYIIJHX9u6YJFglTVOt-109" value="voteting" style="shape=table;startSize=30;container=1;collapsible=1;childLayout=tableLayout;fixedRows=1;rowLines=0;fontStyle=1;align=center;resizeLast=1;fillColor=#d5e8d4;strokeColor=#82b366;" vertex="1" parent="1">
          <mxGeometry x="280" y="80" width="180" height="150" as="geometry" />
        </mxCell>
        <mxCell id="RnYIIJHX9u6YJFglTVOt-110" value="" style="shape=partialRectangle;collapsible=0;dropTarget=0;pointerEvents=0;fillColor=none;top=0;left=0;bottom=1;right=0;points=[[0,0.5],[1,0.5]];portConstraint=eastwest;" vertex="1" parent="RnYIIJHX9u6YJFglTVOt-109">
          <mxGeometry y="30" width="180" height="30" as="geometry" />
        </mxCell>
        <mxCell id="RnYIIJHX9u6YJFglTVOt-111" value="PK" style="shape=partialRectangle;connectable=0;fillColor=none;top=0;left=0;bottom=0;right=0;fontStyle=1;overflow=hidden;" vertex="1" parent="RnYIIJHX9u6YJFglTVOt-110">
          <mxGeometry width="30" height="30" as="geometry" />
        </mxCell>
        <mxCell id="RnYIIJHX9u6YJFglTVOt-112" value="ID" style="shape=partialRectangle;connectable=0;fillColor=none;top=0;left=0;bottom=0;right=0;align=left;spacingLeft=6;fontStyle=5;overflow=hidden;" vertex="1" parent="RnYIIJHX9u6YJFglTVOt-110">
          <mxGeometry x="30" width="150" height="30" as="geometry" />
        </mxCell>
        <mxCell id="RnYIIJHX9u6YJFglTVOt-113" value="" style="shape=partialRectangle;collapsible=0;dropTarget=0;pointerEvents=0;fillColor=none;top=0;left=0;bottom=0;right=0;points=[[0,0.5],[1,0.5]];portConstraint=eastwest;" vertex="1" parent="RnYIIJHX9u6YJFglTVOt-109">
          <mxGeometry y="60" width="180" height="30" as="geometry" />
        </mxCell>
        <mxCell id="RnYIIJHX9u6YJFglTVOt-114" value="fk" style="shape=partialRectangle;connectable=0;fillColor=none;top=0;left=0;bottom=0;right=0;editable=1;overflow=hidden;" vertex="1" parent="RnYIIJHX9u6YJFglTVOt-113">
          <mxGeometry width="30" height="30" as="geometry" />
        </mxCell>
        <mxCell id="RnYIIJHX9u6YJFglTVOt-115" value="candidates id (varchrat)" style="shape=partialRectangle;connectable=0;fillColor=none;top=0;left=0;bottom=0;right=0;align=left;spacingLeft=6;overflow=hidden;" vertex="1" parent="RnYIIJHX9u6YJFglTVOt-113">
          <mxGeometry x="30" width="150" height="30" as="geometry" />
        </mxCell>
        <mxCell id="RnYIIJHX9u6YJFglTVOt-149" value="" style="shape=partialRectangle;collapsible=0;dropTarget=0;pointerEvents=0;fillColor=none;top=0;left=0;bottom=0;right=0;points=[[0,0.5],[1,0.5]];portConstraint=eastwest;" vertex="1" parent="RnYIIJHX9u6YJFglTVOt-109">
          <mxGeometry y="90" width="180" height="30" as="geometry" />
        </mxCell>
        <mxCell id="RnYIIJHX9u6YJFglTVOt-150" value="fk" style="shape=partialRectangle;connectable=0;fillColor=none;top=0;left=0;bottom=0;right=0;editable=1;overflow=hidden;" vertex="1" parent="RnYIIJHX9u6YJFglTVOt-149">
          <mxGeometry width="30" height="30" as="geometry" />
        </mxCell>
        <mxCell id="RnYIIJHX9u6YJFglTVOt-151" value="voters id (varchrat)" style="shape=partialRectangle;connectable=0;fillColor=none;top=0;left=0;bottom=0;right=0;align=left;spacingLeft=6;overflow=hidden;" vertex="1" parent="RnYIIJHX9u6YJFglTVOt-149">
          <mxGeometry x="30" width="150" height="30" as="geometry" />
        </mxCell>
        <mxCell id="RnYIIJHX9u6YJFglTVOt-119" value="" style="shape=partialRectangle;collapsible=0;dropTarget=0;pointerEvents=0;fillColor=none;top=0;left=0;bottom=0;right=0;points=[[0,0.5],[1,0.5]];portConstraint=eastwest;" vertex="1" parent="RnYIIJHX9u6YJFglTVOt-109">
          <mxGeometry y="120" width="180" height="30" as="geometry" />
        </mxCell>
        <mxCell id="RnYIIJHX9u6YJFglTVOt-120" value="" style="shape=partialRectangle;connectable=0;fillColor=none;top=0;left=0;bottom=0;right=0;editable=1;overflow=hidden;" vertex="1" parent="RnYIIJHX9u6YJFglTVOt-119">
          <mxGeometry width="30" height="30" as="geometry" />
        </mxCell>
        <mxCell id="RnYIIJHX9u6YJFglTVOt-121" value="" style="shape=partialRectangle;connectable=0;fillColor=none;top=0;left=0;bottom=0;right=0;align=left;spacingLeft=6;overflow=hidden;" vertex="1" parent="RnYIIJHX9u6YJFglTVOt-119">
          <mxGeometry x="30" width="150" height="30" as="geometry" />
        </mxCell>
        <mxCell id="RnYIIJHX9u6YJFglTVOt-138" value="" style="edgeStyle=entityRelationEdgeStyle;fontSize=12;html=1;endArrow=ERoneToMany;entryX=0;entryY=0.5;entryDx=0;entryDy=0;exitX=1;exitY=0.105;exitDx=0;exitDy=0;exitPerimeter=0;" edge="1" parent="1" source="RnYIIJHX9u6YJFglTVOt-46" target="RnYIIJHX9u6YJFglTVOt-113">
          <mxGeometry width="100" height="100" relative="1" as="geometry">
            <mxPoint x="200" y="210" as="sourcePoint" />
            <mxPoint x="290" y="110" as="targetPoint" />
          </mxGeometry>
        </mxCell>
        <mxCell id="RnYIIJHX9u6YJFglTVOt-140" value="" style="fontSize=12;html=1;endArrow=ERoneToMany;entryX=1;entryY=0.5;entryDx=0;entryDy=0;exitX=-0.022;exitY=0.733;exitDx=0;exitDy=0;exitPerimeter=0;" edge="1" parent="1" source="RnYIIJHX9u6YJFglTVOt-34" target="RnYIIJHX9u6YJFglTVOt-149">
          <mxGeometry width="100" height="100" relative="1" as="geometry">
            <mxPoint x="460" y="180" as="sourcePoint" />
            <mxPoint x="540" y="80" as="targetPoint" />
          </mxGeometry>
        </mxCell>
      </root>
    </mxGraphModel>
  </diagram>
</mxfile>
